<svg fill="#4B5563" version="1.1" id="Layer_1" xmlns="http://www.w3.org/2000/svg" xmlns:xlink="http://www.w3.org/1999/xlink" 
	 viewBox="0 0 512.008 512.008" xml:space="preserve">
<g>
	<g>
		<path d="M386.993,467.206h-12.791c-5.77,0-10.449,4.678-10.449,10.449c0,5.771,4.679,10.449,10.449,10.449h12.791
			c5.77,0,10.449-4.678,10.449-10.449C397.442,471.883,392.764,467.206,386.993,467.206z"/>
	</g>
</g>
<g>
	<g>
		<path d="M328.868,236.732c-0.998-9.84-11.647-9.843-18.941-9.843c-11.695,0-33.466,2.136-47.862,16.441
			c-2.268,2.253-4.22,4.698-5.926,7.253c-1.707-2.556-3.659-5-5.926-7.252c-13.675-13.589-33.577-16.442-47.863-16.442
			c-7.248,0-17.954-0.11-18.942,9.855c-0.493,4.426-3.454,37.748,16.307,57.396c14.398,14.302,36.164,16.438,47.856,16.437
			c-2.923,0-4.165,0-4.439,0c0.547,0,5.205,0,4.97,0c3.898,0,13.255,0,16.608,0c11.692,0,33.458-2.135,47.855-16.44
			C332.337,274.479,329.358,241.126,328.868,236.732z M245.354,289.645c-8.763-0.238-22.569-2.044-30.906-10.328
			c-8.451-8.402-10.305-22.42-10.535-31.517c8.72,0.17,23.025,1.862,31.571,10.355c6.525,6.484,9.232,16.77,10.172,25.637
			C245.487,285.874,245.394,287.837,245.354,289.645z M297.832,279.315c-8.337,8.286-22.145,10.091-30.908,10.331
			c-0.04-1.798-0.132-3.751-0.299-5.822c0.849-8.535,3.376-18.92,10.17-25.671c8.546-8.492,22.849-10.183,31.57-10.352
			C308.136,256.898,306.282,270.915,297.832,279.315z"/>
	</g>
</g>
<g>
	<g>
		<path d="M328.868,152.388c-0.998-9.839-11.647-9.843-18.941-9.843c-11.695,0-33.466,2.137-47.862,16.442
			c-2.268,2.253-4.22,4.698-5.926,7.252c-1.707-2.555-3.659-5-5.926-7.252c-13.675-13.589-33.577-16.442-47.863-16.442
			c-7.021,0-17.995,0.295-18.942,9.856c-0.493,4.425-3.454,37.748,16.307,57.396c14.398,14.303,36.164,16.438,47.856,16.438
			c3.511,0,13.627,0,17.14,0c11.692,0,33.458-2.137,47.855-16.442C332.337,190.135,329.358,156.781,328.868,152.388z
			 M245.354,205.303c-8.763-0.24-22.569-2.045-30.906-10.328c-8.451-8.403-10.305-22.421-10.535-31.517
			c8.72,0.17,23.025,1.862,31.571,10.354c6.525,6.483,9.232,16.769,10.172,25.636C245.487,201.53,245.394,203.494,245.354,205.303z
			 M297.832,194.973c-8.337,8.285-22.145,10.089-30.908,10.331c-0.04-1.799-0.132-3.752-0.299-5.823
			c0.849-8.535,3.376-18.92,10.17-25.67c8.546-8.492,22.849-10.183,31.57-10.352C308.136,172.555,306.282,186.571,297.832,194.973z"
			/>
	</g>
</g>
<g>
	<g>
		<path d="M256.006,87.922c-5.771,0-10.449,4.678-10.449,10.449v37.746c0,5.771,4.679,10.449,10.449,10.449
			s10.449-4.678,10.449-10.449V98.371C266.454,92.6,261.775,87.922,256.006,87.922z"/>
	</g>
</g>
<g>
	<g>
		<path d="M256.006,42.906c-5.771,0-10.449,4.679-10.449,10.449v9.49c0,5.771,4.679,10.449,10.449,10.449
			s10.449-4.678,10.449-10.449v-9.49C266.454,47.585,261.775,42.906,256.006,42.906z"/>
	</g>
</g>
<g>
	<g>
		<path d="M297.8,69.049c-5.77,0-10.449,4.678-10.449,10.449v37.746c0,5.772,4.679,10.449,10.449,10.449
			c5.771,0,10.449-4.678,10.449-10.449V79.497C308.249,73.727,303.571,69.049,297.8,69.049z"/>
	</g>
</g>
<g>
	<g>
		<path d="M297.8,24.033c-5.77,0-10.449,4.678-10.449,10.449v9.49c0,5.772,4.679,10.449,10.449,10.449
			c5.771,0,10.449-4.678,10.449-10.449v-9.49C308.249,28.712,303.571,24.033,297.8,24.033z"/>
	</g>
</g>
<g>
	<g>
		<path d="M214.211,68.917c-5.771,0-10.449,4.679-10.449,10.449v37.746c0,5.771,4.679,10.449,10.449,10.449
			s10.449-4.679,10.449-10.449V79.366C224.66,73.596,219.981,68.917,214.211,68.917z"/>
	</g>
</g>
<g>
	<g>
		<path d="M214.211,23.901c-5.771,0-10.449,4.678-10.449,10.449v9.49c0,5.771,4.679,10.449,10.449,10.449S224.66,49.61,224.66,43.84
			v-9.49C224.66,28.579,219.981,23.901,214.211,23.901z"/>
	</g>
</g>
<g>
	<g>
		<path d="M506.529,468.473c-17.785-9.646-36.961-18.155-57.223-25.485v-19.057c12.005-0.238,32.207-2.849,45.857-16.331
			c-3.246,3.227-5.425,5.394,0.096-0.092c11.644-11.578,4.839-4.814,0.065-0.068c19.699-19.668,16.729-52.949,16.239-57.338
			c-0.998-9.84-11.647-9.843-18.941-9.843c-11.695,0-33.466,2.136-47.862,16.441c-2.268,2.253-4.22,4.698-5.926,7.253
			c-1.707-2.556-3.659-5-5.926-7.252c-13.675-13.589-33.577-16.442-47.863-16.442c-7.247,0-17.955-0.11-18.942,9.855
			c-0.493,4.426-3.454,37.748,16.307,57.396c13.669,13.581,33.973,16.19,45.998,16.42v12.032
			c-49.613-15.418-104.813-24.036-161.799-24.989v-16.072c12.033-0.236,32.302-2.857,45.952-16.422
			c19.773-19.658,16.794-53.012,16.304-57.406c-0.998-9.839-11.647-9.843-18.941-9.843c-11.695,0-33.466,2.137-47.862,16.442
			c-2.268,2.253-4.22,4.698-5.926,7.252c-1.707-2.555-3.659-5-5.926-7.252c-13.675-13.589-33.577-16.442-47.863-16.442
			c-7.247,0-17.955-0.108-18.942,9.856c-0.493,4.425-3.454,37.748,16.307,57.396c13.669,13.58,33.973,16.19,45.998,16.419v16.065
			c-57.078,0.927-112.369,9.545-162.061,24.981V423.93c12.033-0.235,32.302-2.856,45.952-16.42
			c19.773-19.659,16.794-53.012,16.305-57.406c-0.998-9.84-11.647-9.843-18.941-9.843c-11.695,0-33.466,2.136-47.862,16.441
			c-2.267,2.253-4.22,4.698-5.926,7.253c-1.707-2.556-3.659-5-5.926-7.252c-13.675-13.589-33.577-16.442-47.863-16.442
			c-7.247,0-17.955-0.11-18.942,9.855c-0.493,4.426-3.454,37.748,16.307,57.396c13.669,13.581,33.973,16.19,45.998,16.42v19.037
			c-20.281,7.333-39.475,15.849-57.274,25.503c-4.202,2.279-6.322,7.12-5.146,11.754c1.175,4.634,5.346,7.879,10.127,7.879h328.213
			c5.77,0,10.449-4.678,10.449-10.449c0-5.771-4.679-10.449-10.449-10.449H57.678c58.118-23.015,126.885-35.435,198.329-35.435
			s140.21,12.42,198.328,35.435H422.52c-5.77,0-10.449,4.678-10.449,10.449c0,5.771,4.679,10.449,10.449,10.449h79.029
			c4.78,0,8.951-3.244,10.127-7.879C512.852,475.593,510.733,470.752,506.529,468.473z M459.49,371.524
			c8.546-8.492,22.849-10.183,31.57-10.352c-0.23,9.098-2.083,23.114-10.533,31.515c-8.337,8.286-22.145,10.091-30.908,10.331
			c-0.04-1.798-0.132-3.751-0.299-5.822C450.17,388.66,452.696,378.275,459.49,371.524z M428.049,403.015
			c-8.763-0.238-22.569-2.044-30.906-10.328c-8.451-8.401-10.305-22.419-10.535-31.516c8.721,0.169,23.025,1.861,31.571,10.354
			c6.525,6.484,9.232,16.77,10.172,25.637C428.182,399.244,428.089,401.207,428.049,403.015z M276.795,342.496
			c8.546-8.492,22.849-10.183,31.57-10.352c-0.23,9.097-2.083,23.113-10.533,31.515c-8.337,8.285-22.145,10.089-30.908,10.331
			c-0.04-1.799-0.132-3.752-0.299-5.823C267.475,359.631,270.001,349.246,276.795,342.496z M245.354,373.988
			c-8.763-0.24-22.569-2.045-30.906-10.328c-8.451-8.402-10.307-22.42-10.535-31.516c8.721,0.169,23.025,1.861,31.571,10.352
			c6.525,6.483,9.232,16.769,10.172,25.636C245.487,370.215,245.394,372.179,245.354,373.988z M93.837,371.524
			c8.546-8.492,22.849-10.183,31.57-10.352c-0.23,9.098-2.083,23.114-10.533,31.515c-8.337,8.286-22.145,10.091-30.908,10.331
			c-0.04-1.798-0.132-3.751-0.299-5.822C84.517,388.66,87.042,378.275,93.837,371.524z M62.396,403.015
			c-8.763-0.238-22.569-2.044-30.906-10.328c-8.451-8.401-10.305-22.419-10.535-31.516c8.721,0.169,23.024,1.861,31.571,10.354
			c6.525,6.484,9.231,16.77,10.172,25.637C62.529,399.244,62.436,401.207,62.396,403.015z"/>
	</g>
</g>
<g>
	<g>
		<path d="M511.561,265.759c-0.187-1.861-0.874-3.671-2.039-5.224c0.253,0.337,0.793,1.057-0.002-0.003
			c-0.17-0.226-0.118-0.156-0.003-0.003c-3.879-5.165-11.271-4.613-16.896-4.613c-11.695,0-33.466,2.137-47.862,16.442
			c-2.268,2.253-4.22,4.698-5.926,7.252c-1.707-2.555-3.659-5-5.926-7.252c-13.675-13.589-33.577-16.442-47.863-16.442
			c-7.247,0-17.955-0.109-18.942,9.856c-0.493,4.425-3.454,37.748,16.307,57.396c14.396,14.304,36.161,16.439,47.854,16.439
			c3.511,0,13.627,0,17.14,0c11.692,0,33.458-2.137,47.855-16.442C515.03,303.506,512.051,270.153,511.561,265.759z
			 M428.049,318.674c-8.763-0.239-22.569-2.045-30.906-10.328c-8.451-8.402-10.305-22.419-10.535-31.516
			c8.721,0.169,23.025,1.861,31.571,10.352c6.525,6.483,9.232,16.769,10.172,25.636
			C428.182,314.901,428.089,316.865,428.049,318.674z M480.527,308.345c-8.337,8.285-22.145,10.089-30.908,10.331
			c-0.04-1.799-0.132-3.752-0.299-5.823c0.85-8.534,3.377-18.92,10.17-25.669c8.546-8.492,22.849-10.183,31.57-10.352
			C490.83,285.926,488.977,299.943,480.527,308.345z"/>
	</g>
</g>
<g>
	<g>
		<path d="M511.563,181.417c-0.998-9.84-11.647-9.843-18.941-9.843c-11.695,0-33.466,2.136-47.862,16.441
			c-2.268,2.253-4.22,4.698-5.926,7.253c-1.707-2.556-3.659-5-5.926-7.252c-13.675-13.589-33.577-16.442-47.863-16.442
			c-7.247,0-17.955-0.11-18.942,9.855c-0.493,4.426-3.454,37.748,16.307,57.396c14.399,14.302,36.164,16.438,47.856,16.437
			c-10.596,0.001,0.897,0,0.532,0c3.898,0,13.255,0,16.608,0c11.692,0,33.458-2.135,47.855-16.44
			C515.031,219.164,512.053,185.811,511.563,181.417z M428.049,234.331c-8.763-0.239-22.569-2.044-30.906-10.328
			c-8.451-8.402-10.305-22.42-10.535-31.517c8.721,0.169,23.025,1.861,31.571,10.353c6.525,6.484,9.232,16.77,10.172,25.637
			C428.182,230.559,428.089,232.522,428.049,234.331z M480.527,224c-8.337,8.286-22.145,10.091-30.908,10.331
			c-0.04-1.798-0.132-3.751-0.299-5.822c0.849-8.534,3.376-18.92,10.17-25.671c8.546-8.492,22.849-10.183,31.57-10.352
			C490.83,201.583,488.977,215.6,480.527,224z"/>
	</g>
</g>
<g>
	<g>
		<path d="M438.701,116.95c-5.771,0-10.449,4.679-10.449,10.449v37.746c0,5.771,4.678,10.449,10.449,10.449
			c5.77,0,10.449-4.679,10.449-10.449v-37.746C449.15,121.629,444.471,116.95,438.701,116.95z"/>
	</g>
</g>
<g>
	<g>
		<path d="M438.701,71.935c-5.771,0-10.449,4.678-10.449,10.449v9.49c0,5.771,4.678,10.449,10.449,10.449
			c5.77,0,10.449-4.679,10.449-10.449v-9.49C449.15,76.612,444.471,71.935,438.701,71.935z"/>
	</g>
</g>
<g>
	<g>
		<path d="M480.496,98.078c-5.771,0-10.449,4.679-10.449,10.449v37.746c0,5.77,4.678,10.449,10.449,10.449
			c5.77,0,10.449-4.679,10.449-10.449v-37.746C490.944,102.757,486.265,98.078,480.496,98.078z"/>
	</g>
</g>
<g>
	<g>
		<path d="M480.496,53.062c-5.771,0-10.449,4.678-10.449,10.449v9.49c0,5.77,4.678,10.449,10.449,10.449
			c5.77,0,10.449-4.679,10.449-10.449v-9.49C490.944,57.74,486.265,53.062,480.496,53.062z"/>
	</g>
</g>
<g>
	<g>
		<path d="M396.907,97.946c-5.771,0-10.449,4.678-10.449,10.449v37.746c0,5.771,4.678,10.449,10.449,10.449
			c5.77,0,10.449-4.678,10.449-10.449v-37.746C407.356,102.624,402.677,97.946,396.907,97.946z"/>
	</g>
</g>
<g>
	<g>
		<path d="M396.907,52.931c-5.771,0-10.449,4.679-10.449,10.449v9.49c0,5.771,4.678,10.449,10.449,10.449
			c5.77,0,10.449-4.678,10.449-10.449v-9.49C407.356,57.61,402.677,52.931,396.907,52.931z"/>
	</g>
</g>
<g>
	<g>
		<path d="M145.911,265.759c-0.998-9.839-11.648-9.843-18.941-9.843c-11.695,0-33.466,2.137-47.862,16.442
			c-2.267,2.253-4.22,4.698-5.926,7.252c-1.707-2.555-3.659-5-5.926-7.252c-13.675-13.589-33.577-16.442-47.863-16.442
			c-7.247,0-17.955-0.109-18.942,9.856c-0.493,4.425-3.454,37.748,16.307,57.396c14.398,14.303,36.163,16.438,47.855,16.438
			c3.511,0,13.627,0,17.14,0c11.692,0,33.457-2.137,47.855-16.442C149.379,303.506,146.4,270.153,145.911,265.759z M62.396,318.674
			c-8.763-0.239-22.569-2.045-30.906-10.328c-8.451-8.403-10.305-22.421-10.535-31.517c8.721,0.17,23.024,1.862,31.571,10.354
			c6.525,6.483,9.231,16.769,10.172,25.636C62.529,314.901,62.436,316.865,62.396,318.674z M114.874,308.345
			c-8.337,8.285-22.145,10.089-30.908,10.331c-0.04-1.799-0.132-3.752-0.299-5.823c0.849-8.535,3.375-18.92,10.17-25.67
			c8.546-8.492,22.849-10.183,31.57-10.352C125.178,285.926,123.324,299.943,114.874,308.345z"/>
	</g>
</g>
<g>
	<g>
		<path d="M145.911,181.417c-0.998-9.84-11.647-9.843-18.941-9.843c-11.695,0-33.466,2.136-47.862,16.441
			c-2.267,2.253-4.22,4.698-5.926,7.253c-1.707-2.556-3.659-5-5.926-7.252c-13.675-13.589-33.577-16.442-47.863-16.442
			c-7.247,0-17.955-0.11-18.942,9.855c-0.493,4.426-3.454,37.748,16.307,57.396c14.398,14.302,36.163,16.438,47.855,16.437
			c-10.596,0.001,0.897,0,0.532,0c3.898,0,13.255,0,16.608,0c11.692,0,33.457-2.135,47.855-16.44
			C149.379,219.164,146.4,185.811,145.911,181.417z M62.396,234.331c-8.763-0.239-22.569-2.044-30.906-10.328
			c-8.451-8.402-10.305-22.42-10.535-31.517c8.721,0.169,23.024,1.861,31.571,10.353c6.525,6.484,9.231,16.77,10.172,25.637
			C62.529,230.559,62.436,232.522,62.396,234.331z M114.874,224c-8.337,8.286-22.145,10.091-30.908,10.331
			c-0.04-1.798-0.132-3.751-0.299-5.822c0.849-8.534,3.375-18.92,10.17-25.671c8.546-8.492,22.849-10.183,31.57-10.352
			C125.178,201.583,123.324,215.6,114.874,224z"/>
	</g>
</g>
<g>
	<g>
		<path d="M73.155,116.95c-5.77,0-10.449,4.679-10.449,10.449v37.746c0,5.771,4.679,10.449,10.449,10.449
			s10.449-4.679,10.449-10.449v-37.746C83.604,121.629,78.925,116.95,73.155,116.95z"/>
	</g>
</g>
<g>
	<g>
		<path d="M73.155,71.935c-5.77,0-10.449,4.678-10.449,10.449v9.49c0,5.771,4.679,10.449,10.449,10.449s10.449-4.679,10.449-10.449
			v-9.49C83.604,76.612,78.925,71.935,73.155,71.935z"/>
	</g>
</g>
<g>
	<g>
		<path d="M114.95,98.078c-5.77,0-10.449,4.679-10.449,10.449v37.746c0,5.77,4.679,10.449,10.449,10.449s10.449-4.679,10.449-10.449
			v-37.746C125.398,102.757,120.719,98.078,114.95,98.078z"/>
	</g>
</g>
<g>
	<g>
		<path d="M114.95,53.062c-5.77,0-10.449,4.678-10.449,10.449v9.49c0,5.77,4.679,10.449,10.449,10.449s10.449-4.679,10.449-10.449
			v-9.49C125.398,57.74,120.719,53.062,114.95,53.062z"/>
	</g>
</g>
<g>
	<g>
		<path d="M31.361,97.946c-5.77,0-10.449,4.678-10.449,10.449v37.746c0,5.771,4.679,10.449,10.449,10.449
			c5.771,0,10.449-4.678,10.449-10.449v-37.746C41.809,102.624,37.13,97.946,31.361,97.946z"/>
	</g>
</g>
<g>
	<g>
		<path d="M31.361,52.931c-5.77,0-10.449,4.679-10.449,10.449v9.49c0,5.771,4.679,10.449,10.449,10.449
			c5.771,0,10.449-4.678,10.449-10.449v-9.49C41.809,57.61,37.13,52.931,31.361,52.931z"/>
	</g>
</g>
</svg>