<svg fill="#16A34A"  version="1.1" id="Layer_1" xmlns="http://www.w3.org/2000/svg" xmlns:xlink="http://www.w3.org/1999/xlink" 
	 viewBox="0 0 512 512" xml:space="preserve">
<g>
	<g>
		<path d="M188.954,352.208c-26.406-23.122-60.439-32.097-101.165-26.67c-4.876,0.652-8.519,4.813-8.519,9.732
			c0,2.517,0.35,62.213,30.855,113.054c29.158,48.593,73.805,55.564,113.198,61.719c3.83,0.599,7.647,1.194,11.424,1.822
			c0.542,0.091,1.079,0.134,1.616,0.134c2.306,0,4.559-0.815,6.347-2.325c2.201-1.87,3.471-4.607,3.471-7.493
			C246.182,498.102,245.53,401.74,188.954,352.208z M126.962,438.219c-21.132-35.218-26.348-76.447-27.638-94.156
			c30.874-2.301,56.599,5.35,76.643,22.873c39.192,34.263,48.018,97.627,50.002,123.644
			C187.559,484.582,151.311,478.801,126.962,438.219z"/>
	</g>
</g>
<g>
	<g>
		<path d="M424.21,325.538c-40.721-5.432-74.75,3.548-101.165,26.67c-56.575,49.532-57.227,145.894-57.227,149.974
			c0,2.886,1.271,5.623,3.471,7.493c1.788,1.51,4.042,2.325,6.348,2.325c0.537,0,1.074-0.043,1.616-0.134
			c3.778-0.628,7.594-1.223,11.424-1.822c39.393-6.156,84.041-13.126,113.198-61.719c30.505-50.841,30.855-110.537,30.855-113.054
			C432.73,330.352,429.086,326.19,424.21,325.538z M385.038,438.219c-24.349,40.582-60.597,46.364-99.008,52.361
			c1.985-26.018,10.811-89.381,50.002-123.644c17.71-15.485,39.868-23.28,66.053-23.28c3.461,0,6.995,0.139,10.6,0.412
			C411.42,361.739,406.237,402.882,385.038,438.219z"/>
	</g>
</g>
<g>
	<g>
		<path d="M372.679,217.033c-27.528-3.691-50.539,2.44-68.484,18.155c-37.94,33.218-38.377,97.368-38.377,100.082
			c0,2.886,1.271,5.623,3.471,7.493c1.788,1.51,4.042,2.325,6.348,2.325c0.537,0,1.074-0.043,1.616-0.134l7.392-1.179
			c26.353-4.113,56.225-8.778,76.005-41.747c20.313-33.861,20.548-73.589,20.548-75.263
			C381.198,221.847,377.554,217.686,372.679,217.033z M343.813,291.922c-14.104,23.51-35.098,28.132-57.635,31.732
			c1.831-18.313,8.279-53.842,30.951-73.69c10.868-9.516,24.536-14.31,40.745-14.31c1.031,0,2.076,0.019,3.131,0.057
			C359.792,248.229,355.957,271.686,343.813,291.922z"/>
	</g>
</g>
<g>
	<g>
		<path d="M345.664,128.4c-20.605-2.738-37.845,1.874-51.354,13.697c-28.165,24.666-28.491,71.931-28.491,73.93
			c0,2.886,1.271,5.628,3.471,7.493c1.788,1.51,4.042,2.325,6.348,2.325c0.537,0,1.079-0.043,1.616-0.134l5.293-0.844
			c18.548-2.9,41.632-6.51,56.494-31.281c14.972-24.953,15.145-54.221,15.145-55.453C354.183,133.214,350.539,129.052,345.664,128.4
			z M322.202,183.48c-8.778,14.636-21.276,18.362-35.812,20.873c1.736-13.409,6.707-35.131,20.902-47.519
			c7.196-6.285,15.935-9.444,26.54-9.564C332.696,156.412,329.767,170.876,322.202,183.48z"/>
	</g>
</g>
<g>
	<g>
		<path d="M217.69,142.097c-13.51-11.832-30.773-16.439-51.354-13.697c-4.876,0.652-8.519,4.813-8.519,9.732
			c0,1.232,0.173,30.5,15.149,55.453c14.862,24.771,37.941,28.381,56.489,31.281l5.293,0.844c0.537,0.091,1.079,0.134,1.616,0.134
			c2.306,0,4.559-0.815,6.347-2.325c2.201-1.865,3.471-4.607,3.471-7.493C246.182,214.028,245.856,166.763,217.69,142.097z
			 M189.803,183.48c-7.565-12.608-10.499-27.067-11.635-36.21c10.604,0.12,19.344,3.279,26.54,9.564
			c14.195,12.388,19.167,34.11,20.902,47.519C211.074,201.841,198.581,198.116,189.803,183.48z"/>
	</g>
</g>
<g>
	<g>
		<path d="M205.365,235.189c-17.949-15.715-41.004-21.823-68.484-18.155c-4.876,0.652-8.519,4.813-8.519,9.732
			c0,1.673,0.235,41.407,20.552,75.263c19.78,32.964,49.648,37.629,76.001,41.747l7.392,1.179c0.542,0.091,1.079,0.134,1.616,0.134
			c2.306,0,4.559-0.815,6.348-2.325c2.201-1.865,3.471-4.607,3.471-7.493C243.741,332.557,243.305,268.407,205.365,235.189z
			 M165.751,291.922c-12.143-20.236-15.983-43.693-17.197-56.211c17.647-0.638,32.274,4.123,43.828,14.21
			c22.623,19.766,29.119,55.377,30.979,73.728C200.834,320.049,179.85,315.423,165.751,291.922z"/>
	</g>
</g>
<g>
	<g>
		<path d="M264.543,4.981c-1.769-3.126-4.991-4.842-8.682-4.981c-3.586,0.053-6.86,2.057-8.538,5.226
			c-3.131,5.916-30.596,58.507-30.596,83.139c0,25.672,28.434,61.163,31.675,65.128c1.755,2.148,4.338,3.452,7.11,3.586
			c0.163,0.01,0.326,0.014,0.489,0.014c2.598,0,5.096-1.031,6.942-2.877c21.453-21.453,32.331-43.607,32.331-65.852
			C295.273,60.07,267.688,10.538,264.543,4.981z M256.743,132.01c-9.674-13.634-20.38-32.36-20.38-43.646
			c0-11.396,10.168-36.541,19.852-56.992c8.84,17.973,19.421,42.85,19.421,56.992C275.637,102.555,269.289,117.201,256.743,132.01z"
			/>
	</g>
</g>
</svg>